<?xml version="1.0" encoding="UTF-8" standalone="no"?>
<!DOCTYPE svg PUBLIC "-//W3C//DTD SVG 1.1//EN"
 "http://www.w3.org/Graphics/SVG/1.1/DTD/svg11.dtd">
<!-- Generated by graphviz version 2.47.0 (20210316.0004)
 -->
<!-- Title: dependencies Pages: 1 -->
<svg width="1567pt" height="284pt"
 viewBox="0.00 0.00 1567.00 284.00" xmlns="http://www.w3.org/2000/svg" xmlns:xlink="http://www.w3.org/1999/xlink">
<g id="graph0" class="graph" transform="scale(1 1) rotate(0) translate(4 280)">
<title>dependencies</title>
<polygon fill="white" stroke="transparent" points="-4,4 -4,-280 1563,-280 1563,4 -4,4"/>
<text text-anchor="start" x="758.51" y="-42.4" font-family="Times-12" font-weight="bold" font-size="14.00">Legend</text>
<polygon fill="#ffffb3" stroke="transparent" points="545.5,-10 545.5,-30 565.5,-30 565.5,-10 545.5,-10"/>
<text text-anchor="start" x="569.13" y="-15.4" font-family="Times-12" font-size="14.00"> &#160;Declarations</text>
<polygon fill="#8dd3c7" stroke="transparent" points="658.5,-10 658.5,-30 678.5,-30 678.5,-10 658.5,-10"/>
<text text-anchor="start" x="682.23" y="-15.4" font-family="Times-12" font-size="14.00"> &#160;Module</text>
<polygon fill="#80b1d3" stroke="transparent" points="744.5,-10 744.5,-30 764.5,-30 764.5,-10 744.5,-10"/>
<text text-anchor="start" x="768.28" y="-15.4" font-family="Times-12" font-size="14.00"> &#160;Bootstrap</text>
<polygon fill="#fdb462" stroke="transparent" points="841.5,-10 841.5,-30 861.5,-30 861.5,-10 841.5,-10"/>
<text text-anchor="start" x="865.17" y="-15.4" font-family="Times-12" font-size="14.00"> &#160;Providers</text>
<polygon fill="#fb8072" stroke="transparent" points="937.5,-10 937.5,-30 957.5,-30 957.5,-10 937.5,-10"/>
<text text-anchor="start" x="961.23" y="-15.4" font-family="Times-12" font-size="14.00"> &#160;Exports</text>
<g id="clust1" class="cluster">
<title>cluster_AppModule</title>
<polygon fill="none" stroke="black" stroke-dasharray="1,5" points="8,-70 8,-268 1551,-268 1551,-70 8,-70"/>
</g>
<g id="clust8" class="cluster">
<title>cluster_AppModule_bootstrap</title>
<polygon fill="none" stroke="black" points="709,-208 709,-260 833,-260 833,-208 709,-208"/>
</g>
<g id="clust6" class="cluster">
<title>cluster_AppModule_imports</title>
<polygon fill="none" stroke="black" points="777,-78 777,-130 1543,-130 1543,-78 777,-78"/>
</g>
<g id="clust9" class="cluster">
<title>cluster_AppModule_providers</title>
<polygon fill="none" stroke="black" points="435,-78 435,-130 769,-130 769,-78 435,-78"/>
</g>
<g id="clust2" class="cluster">
<title>cluster_AppModule_declarations</title>
<polygon fill="none" stroke="black" points="16,-78 16,-130 427,-130 427,-78 16,-78"/>
</g>
<!-- AppComponent -->
<g id="node1" class="node">
<title>AppComponent</title>
<polygon fill="#ffffb3" stroke="black" points="418.94,-122 313.06,-122 313.06,-86 418.94,-86 418.94,-122"/>
<text text-anchor="middle" x="366" y="-99.8" font-family="Times,serif" font-size="14.00">AppComponent</text>
</g>
<!-- AppModule -->
<g id="node4" class="node">
<title>AppModule</title>
<polygon fill="#8dd3c7" stroke="black" points="812.66,-187 809.66,-191 788.66,-191 785.66,-187 729.34,-187 729.34,-151 812.66,-151 812.66,-187"/>
<text text-anchor="middle" x="771" y="-164.8" font-family="Times,serif" font-size="14.00">AppModule</text>
</g>
<!-- AppComponent&#45;&gt;AppModule -->
<g id="edge1" class="edge">
<title>AppComponent&#45;&gt;AppModule</title>
<path fill="none" stroke="black" d="M366,-122.27C366,-140.56 366,-166 366,-166 366,-166 719.18,-166 719.18,-166"/>
<polygon fill="black" stroke="black" points="719.18,-169.5 729.18,-166 719.18,-162.5 719.18,-169.5"/>
</g>
<!-- HomeComponent -->
<g id="node2" class="node">
<title>HomeComponent</title>
<polygon fill="#ffffb3" stroke="black" points="295.55,-122 180.45,-122 180.45,-86 295.55,-86 295.55,-122"/>
<text text-anchor="middle" x="238" y="-99.8" font-family="Times,serif" font-size="14.00">HomeComponent</text>
</g>
<!-- HomeComponent&#45;&gt;AppModule -->
<g id="edge2" class="edge">
<title>HomeComponent&#45;&gt;AppModule</title>
<path fill="none" stroke="black" d="M238,-122.13C238,-142.57 238,-173 238,-173 238,-173 719.18,-173 719.18,-173"/>
<polygon fill="black" stroke="black" points="719.18,-176.5 729.18,-173 719.18,-169.5 719.18,-176.5"/>
</g>
<!-- NotFoundComponent -->
<g id="node3" class="node">
<title>NotFoundComponent</title>
<polygon fill="#ffffb3" stroke="black" points="162.11,-122 23.89,-122 23.89,-86 162.11,-86 162.11,-122"/>
<text text-anchor="middle" x="93" y="-99.8" font-family="Times,serif" font-size="14.00">NotFoundComponent</text>
</g>
<!-- NotFoundComponent&#45;&gt;AppModule -->
<g id="edge3" class="edge">
<title>NotFoundComponent&#45;&gt;AppModule</title>
<path fill="none" stroke="black" d="M93,-122.01C93,-144.49 93,-180 93,-180 93,-180 719.1,-180 719.1,-180"/>
<polygon fill="black" stroke="black" points="719.1,-183.5 729.1,-180 719.1,-176.5 719.1,-183.5"/>
</g>
<!-- AppComponent  -->
<g id="node10" class="node">
<title>AppComponent </title>
<polygon fill="#80b1d3" stroke="black" points="825.44,-252 716.56,-252 716.56,-216 825.44,-216 825.44,-252"/>
<text text-anchor="middle" x="771" y="-229.8" font-family="Times,serif" font-size="14.00">AppComponent </text>
</g>
<!-- AppModule&#45;&gt;AppComponent  -->
<g id="edge9" class="edge">
<title>AppModule&#45;&gt;AppComponent </title>
<path fill="none" stroke="black" stroke-dasharray="1,5" d="M771,-187.11C771,-187.11 771,-205.99 771,-205.99"/>
<polygon fill="black" stroke="black" points="767.5,-205.99 771,-215.99 774.5,-205.99 767.5,-205.99"/>
</g>
<!-- AppRoutingModule -->
<g id="node5" class="node">
<title>AppRoutingModule</title>
<polygon fill="#8dd3c7" stroke="black" points="1535.27,-122 1532.27,-126 1511.27,-126 1508.27,-122 1406.73,-122 1406.73,-86 1535.27,-86 1535.27,-122"/>
<text text-anchor="middle" x="1471" y="-99.8" font-family="Times,serif" font-size="14.00">AppRoutingModule</text>
</g>
<!-- AppRoutingModule&#45;&gt;AppModule -->
<g id="edge4" class="edge">
<title>AppRoutingModule&#45;&gt;AppModule</title>
<path fill="none" stroke="black" d="M1471,-122.01C1471,-144.49 1471,-180 1471,-180 1471,-180 822.69,-180 822.69,-180"/>
<polygon fill="black" stroke="black" points="822.69,-176.5 812.69,-180 822.69,-183.5 822.69,-176.5"/>
</g>
<!-- BoxStatsComponent -->
<g id="node6" class="node">
<title>BoxStatsComponent</title>
<polygon fill="#8dd3c7" stroke="black" points="1388.89,-122 1385.89,-126 1364.89,-126 1361.89,-122 1257.11,-122 1257.11,-86 1388.89,-86 1388.89,-122"/>
<text text-anchor="middle" x="1323" y="-99.8" font-family="Times,serif" font-size="14.00">BoxStatsComponent</text>
</g>
<!-- BoxStatsComponent&#45;&gt;AppModule -->
<g id="edge5" class="edge">
<title>BoxStatsComponent&#45;&gt;AppModule</title>
<path fill="none" stroke="black" d="M1323,-122.13C1323,-142.57 1323,-173 1323,-173 1323,-173 822.94,-173 822.94,-173"/>
<polygon fill="black" stroke="black" points="822.94,-169.5 812.94,-173 822.94,-176.5 822.94,-169.5"/>
</g>
<!-- GlobalGraphComponent -->
<g id="node7" class="node">
<title>GlobalGraphComponent</title>
<polygon fill="#8dd3c7" stroke="black" points="1239.42,-122 1236.42,-126 1215.42,-126 1212.42,-122 1084.58,-122 1084.58,-86 1239.42,-86 1239.42,-122"/>
<text text-anchor="middle" x="1162" y="-99.8" font-family="Times,serif" font-size="14.00">GlobalGraphComponent</text>
</g>
<!-- GlobalGraphComponent&#45;&gt;AppModule -->
<g id="edge6" class="edge">
<title>GlobalGraphComponent&#45;&gt;AppModule</title>
<path fill="none" stroke="black" d="M1162,-122.27C1162,-140.56 1162,-166 1162,-166 1162,-166 822.84,-166 822.84,-166"/>
<polygon fill="black" stroke="black" points="822.84,-162.5 812.84,-166 822.84,-169.5 822.84,-162.5"/>
</g>
<!-- LoadingComponent -->
<g id="node8" class="node">
<title>LoadingComponent</title>
<polygon fill="#8dd3c7" stroke="black" points="1066.99,-122 1063.99,-126 1042.99,-126 1039.99,-122 939.01,-122 939.01,-86 1066.99,-86 1066.99,-122"/>
<text text-anchor="middle" x="1003" y="-99.8" font-family="Times,serif" font-size="14.00">LoadingComponent</text>
</g>
<!-- LoadingComponent&#45;&gt;AppModule -->
<g id="edge7" class="edge">
<title>LoadingComponent&#45;&gt;AppModule</title>
<path fill="none" stroke="black" d="M1003,-122.01C1003,-138.05 1003,-159 1003,-159 1003,-159 822.74,-159 822.74,-159"/>
<polygon fill="black" stroke="black" points="822.74,-155.5 812.74,-159 822.74,-162.5 822.74,-155.5"/>
</g>
<!-- MessagesComponent -->
<g id="node9" class="node">
<title>MessagesComponent</title>
<polygon fill="#8dd3c7" stroke="black" points="920.75,-122 917.75,-126 896.75,-126 893.75,-122 785.25,-122 785.25,-86 920.75,-86 920.75,-122"/>
<text text-anchor="middle" x="853" y="-99.8" font-family="Times,serif" font-size="14.00">MessagesComponent</text>
</g>
<!-- MessagesComponent&#45;&gt;AppModule -->
<g id="edge8" class="edge">
<title>MessagesComponent&#45;&gt;AppModule</title>
<path fill="none" stroke="black" d="M798.98,-122.11C798.98,-122.11 798.98,-140.99 798.98,-140.99"/>
<polygon fill="black" stroke="black" points="795.48,-140.99 798.98,-150.99 802.48,-140.99 795.48,-140.99"/>
</g>
<!-- LoadingService -->
<g id="node11" class="node">
<title>LoadingService</title>
<ellipse fill="#fdb462" stroke="black" cx="689" cy="-104" rx="72.35" ry="18"/>
<text text-anchor="middle" x="689" y="-99.8" font-family="Times,serif" font-size="14.00">LoadingService</text>
</g>
<!-- LoadingService&#45;&gt;AppModule -->
<g id="edge10" class="edge">
<title>LoadingService&#45;&gt;AppModule</title>
<path fill="none" stroke="black" d="M745.17,-115.32C745.17,-115.32 745.17,-140.94 745.17,-140.94"/>
<polygon fill="black" stroke="black" points="741.67,-140.94 745.17,-150.94 748.67,-140.94 741.67,-140.94"/>
</g>
<!-- MessagesService -->
<g id="node12" class="node">
<title>MessagesService</title>
<ellipse fill="#fdb462" stroke="black" cx="521" cy="-104" rx="77.56" ry="18"/>
<text text-anchor="middle" x="521" y="-99.8" font-family="Times,serif" font-size="14.00">MessagesService</text>
</g>
<!-- MessagesService&#45;&gt;AppModule -->
<g id="edge11" class="edge">
<title>MessagesService&#45;&gt;AppModule</title>
<path fill="none" stroke="black" d="M521,-122.01C521,-138.05 521,-159 521,-159 521,-159 719.16,-159 719.16,-159"/>
<polygon fill="black" stroke="black" points="719.16,-162.5 729.16,-159 719.16,-155.5 719.16,-162.5"/>
</g>
</g>
</svg>
