<?xml version="1.0" encoding="UTF-8" standalone="no"?>
<!DOCTYPE svg PUBLIC "-//W3C//DTD SVG 1.1//EN"
 "http://www.w3.org/Graphics/SVG/1.1/DTD/svg11.dtd">
<!-- Generated by graphviz version 2.47.0 (20210316.0004)
 -->
<!-- Title: dependencies Pages: 1 -->
<svg width="1567pt" height="284pt"
 viewBox="0.00 0.00 1567.00 284.00" xmlns="http://www.w3.org/2000/svg" xmlns:xlink="http://www.w3.org/1999/xlink">
<g id="graph0" class="graph" transform="scale(1 1) rotate(0) translate(4 280)">
<title>dependencies</title>
<polygon fill="white" stroke="transparent" points="-4,4 -4,-280 1563,-280 1563,4 -4,4"/>
<text text-anchor="start" x="758.51" y="-42.4" font-family="Times-12" font-weight="bold" font-size="14.00">Legend</text>
<polygon fill="#ffffb3" stroke="transparent" points="545.5,-10 545.5,-30 565.5,-30 565.5,-10 545.5,-10"/>
<text text-anchor="start" x="569.13" y="-15.4" font-family="Times-12" font-size="14.00"> &#160;Declarations</text>
<polygon fill="#8dd3c7" stroke="transparent" points="658.5,-10 658.5,-30 678.5,-30 678.5,-10 658.5,-10"/>
<text text-anchor="start" x="682.23" y="-15.4" font-family="Times-12" font-size="14.00"> &#160;Module</text>
<polygon fill="#80b1d3" stroke="transparent" points="744.5,-10 744.5,-30 764.5,-30 764.5,-10 744.5,-10"/>
<text text-anchor="start" x="768.28" y="-15.4" font-family="Times-12" font-size="14.00"> &#160;Bootstrap</text>
<polygon fill="#fdb462" stroke="transparent" points="841.5,-10 841.5,-30 861.5,-30 861.5,-10 841.5,-10"/>
<text text-anchor="start" x="865.17" y="-15.4" font-family="Times-12" font-size="14.00"> &#160;Providers</text>
<polygon fill="#fb8072" stroke="transparent" points="937.5,-10 937.5,-30 957.5,-30 957.5,-10 937.5,-10"/>
<text text-anchor="start" x="961.23" y="-15.4" font-family="Times-12" font-size="14.00"> &#160;Exports</text>
<g id="clust1" class="cluster">
<title>cluster_AppModule</title>
<polygon fill="none" stroke="black" stroke-dasharray="1,5" points="8,-70 8,-268 1551,-268 1551,-70 8,-70"/>
</g>
<g id="clust2" class="cluster">
<title>cluster_AppModule_declarations</title>
<polygon fill="none" stroke="black" points="1132,-78 1132,-130 1543,-130 1543,-78 1132,-78"/>
</g>
<g id="clust6" class="cluster">
<title>cluster_AppModule_imports</title>
<polygon fill="none" stroke="black" points="358,-78 358,-130 1124,-130 1124,-78 358,-78"/>
</g>
<g id="clust8" class="cluster">
<title>cluster_AppModule_bootstrap</title>
<polygon fill="none" stroke="black" points="761,-208 761,-260 885,-260 885,-208 761,-208"/>
</g>
<g id="clust9" class="cluster">
<title>cluster_AppModule_providers</title>
<polygon fill="none" stroke="black" points="16,-78 16,-130 350,-130 350,-78 16,-78"/>
</g>
<!-- AppComponent -->
<g id="node1" class="node">
<title>AppComponent</title>
<polygon fill="#ffffb3" stroke="black" points="1534.94,-122 1429.06,-122 1429.06,-86 1534.94,-86 1534.94,-122"/>
<text text-anchor="middle" x="1482" y="-99.8" font-family="Times,serif" font-size="14.00">AppComponent</text>
</g>
<!-- AppModule -->
<g id="node4" class="node">
<title>AppModule</title>
<polygon fill="#8dd3c7" stroke="black" points="864.66,-187 861.66,-191 840.66,-191 837.66,-187 781.34,-187 781.34,-151 864.66,-151 864.66,-187"/>
<text text-anchor="middle" x="823" y="-164.8" font-family="Times,serif" font-size="14.00">AppModule</text>
</g>
<!-- AppComponent&#45;&gt;AppModule -->
<g id="edge1" class="edge">
<title>AppComponent&#45;&gt;AppModule</title>
<path fill="none" stroke="black" d="M1482,-122.01C1482,-144.49 1482,-180 1482,-180 1482,-180 874.72,-180 874.72,-180"/>
<polygon fill="black" stroke="black" points="874.72,-176.5 864.72,-180 874.72,-183.5 874.72,-176.5"/>
</g>
<!-- HomeComponent -->
<g id="node2" class="node">
<title>HomeComponent</title>
<polygon fill="#ffffb3" stroke="black" points="1411.55,-122 1296.45,-122 1296.45,-86 1411.55,-86 1411.55,-122"/>
<text text-anchor="middle" x="1354" y="-99.8" font-family="Times,serif" font-size="14.00">HomeComponent</text>
</g>
<!-- HomeComponent&#45;&gt;AppModule -->
<g id="edge2" class="edge">
<title>HomeComponent&#45;&gt;AppModule</title>
<path fill="none" stroke="black" d="M1354,-122.13C1354,-142.57 1354,-173 1354,-173 1354,-173 874.67,-173 874.67,-173"/>
<polygon fill="black" stroke="black" points="874.67,-169.5 864.67,-173 874.67,-176.5 874.67,-169.5"/>
</g>
<!-- NotFoundComponent -->
<g id="node3" class="node">
<title>NotFoundComponent</title>
<polygon fill="#ffffb3" stroke="black" points="1278.11,-122 1139.89,-122 1139.89,-86 1278.11,-86 1278.11,-122"/>
<text text-anchor="middle" x="1209" y="-99.8" font-family="Times,serif" font-size="14.00">NotFoundComponent</text>
</g>
<!-- NotFoundComponent&#45;&gt;AppModule -->
<g id="edge3" class="edge">
<title>NotFoundComponent&#45;&gt;AppModule</title>
<path fill="none" stroke="black" d="M1209,-122.27C1209,-140.56 1209,-166 1209,-166 1209,-166 874.68,-166 874.68,-166"/>
<polygon fill="black" stroke="black" points="874.68,-162.5 864.68,-166 874.68,-169.5 874.68,-162.5"/>
</g>
<!-- AppComponent  -->
<g id="node10" class="node">
<title>AppComponent </title>
<polygon fill="#80b1d3" stroke="black" points="877.44,-252 768.56,-252 768.56,-216 877.44,-216 877.44,-252"/>
<text text-anchor="middle" x="823" y="-229.8" font-family="Times,serif" font-size="14.00">AppComponent </text>
</g>
<!-- AppModule&#45;&gt;AppComponent  -->
<g id="edge9" class="edge">
<title>AppModule&#45;&gt;AppComponent </title>
<path fill="none" stroke="black" stroke-dasharray="1,5" d="M823,-187.11C823,-187.11 823,-205.99 823,-205.99"/>
<polygon fill="black" stroke="black" points="819.5,-205.99 823,-215.99 826.5,-205.99 819.5,-205.99"/>
</g>
<!-- AppRoutingModule -->
<g id="node5" class="node">
<title>AppRoutingModule</title>
<polygon fill="#8dd3c7" stroke="black" points="1116.27,-122 1113.27,-126 1092.27,-126 1089.27,-122 987.73,-122 987.73,-86 1116.27,-86 1116.27,-122"/>
<text text-anchor="middle" x="1052" y="-99.8" font-family="Times,serif" font-size="14.00">AppRoutingModule</text>
</g>
<!-- AppRoutingModule&#45;&gt;AppModule -->
<g id="edge4" class="edge">
<title>AppRoutingModule&#45;&gt;AppModule</title>
<path fill="none" stroke="black" d="M1052,-122.01C1052,-138.05 1052,-159 1052,-159 1052,-159 874.74,-159 874.74,-159"/>
<polygon fill="black" stroke="black" points="874.74,-155.5 864.74,-159 874.74,-162.5 874.74,-155.5"/>
</g>
<!-- BoxStatsComponent -->
<g id="node6" class="node">
<title>BoxStatsComponent</title>
<polygon fill="#8dd3c7" stroke="black" points="969.89,-122 966.89,-126 945.89,-126 942.89,-122 838.11,-122 838.11,-86 969.89,-86 969.89,-122"/>
<text text-anchor="middle" x="904" y="-99.8" font-family="Times,serif" font-size="14.00">BoxStatsComponent</text>
</g>
<!-- BoxStatsComponent&#45;&gt;AppModule -->
<g id="edge5" class="edge">
<title>BoxStatsComponent&#45;&gt;AppModule</title>
<path fill="none" stroke="black" d="M851.44,-122.11C851.44,-122.11 851.44,-140.99 851.44,-140.99"/>
<polygon fill="black" stroke="black" points="847.94,-140.99 851.44,-150.99 854.94,-140.99 847.94,-140.99"/>
</g>
<!-- GlobalGraphComponent -->
<g id="node7" class="node">
<title>GlobalGraphComponent</title>
<polygon fill="#8dd3c7" stroke="black" points="820.42,-122 817.42,-126 796.42,-126 793.42,-122 665.58,-122 665.58,-86 820.42,-86 820.42,-122"/>
<text text-anchor="middle" x="743" y="-99.8" font-family="Times,serif" font-size="14.00">GlobalGraphComponent</text>
</g>
<!-- GlobalGraphComponent&#45;&gt;AppModule -->
<g id="edge6" class="edge">
<title>GlobalGraphComponent&#45;&gt;AppModule</title>
<path fill="none" stroke="black" d="M800.69,-122.11C800.69,-122.11 800.69,-140.99 800.69,-140.99"/>
<polygon fill="black" stroke="black" points="797.19,-140.99 800.69,-150.99 804.19,-140.99 797.19,-140.99"/>
</g>
<!-- LoadingComponent -->
<g id="node8" class="node">
<title>LoadingComponent</title>
<polygon fill="#8dd3c7" stroke="black" points="647.99,-122 644.99,-126 623.99,-126 620.99,-122 520.01,-122 520.01,-86 647.99,-86 647.99,-122"/>
<text text-anchor="middle" x="584" y="-99.8" font-family="Times,serif" font-size="14.00">LoadingComponent</text>
</g>
<!-- LoadingComponent&#45;&gt;AppModule -->
<g id="edge7" class="edge">
<title>LoadingComponent&#45;&gt;AppModule</title>
<path fill="none" stroke="black" d="M584,-122.01C584,-138.05 584,-159 584,-159 584,-159 771.1,-159 771.1,-159"/>
<polygon fill="black" stroke="black" points="771.1,-162.5 781.1,-159 771.1,-155.5 771.1,-162.5"/>
</g>
<!-- MessagesComponent -->
<g id="node9" class="node">
<title>MessagesComponent</title>
<polygon fill="#8dd3c7" stroke="black" points="501.75,-122 498.75,-126 477.75,-126 474.75,-122 366.25,-122 366.25,-86 501.75,-86 501.75,-122"/>
<text text-anchor="middle" x="434" y="-99.8" font-family="Times,serif" font-size="14.00">MessagesComponent</text>
</g>
<!-- MessagesComponent&#45;&gt;AppModule -->
<g id="edge8" class="edge">
<title>MessagesComponent&#45;&gt;AppModule</title>
<path fill="none" stroke="black" d="M434,-122.27C434,-140.56 434,-166 434,-166 434,-166 771,-166 771,-166"/>
<polygon fill="black" stroke="black" points="771,-169.5 781,-166 771,-162.5 771,-169.5"/>
</g>
<!-- LoadingService -->
<g id="node11" class="node">
<title>LoadingService</title>
<ellipse fill="#fdb462" stroke="black" cx="270" cy="-104" rx="72.35" ry="18"/>
<text text-anchor="middle" x="270" y="-99.8" font-family="Times,serif" font-size="14.00">LoadingService</text>
</g>
<!-- LoadingService&#45;&gt;AppModule -->
<g id="edge10" class="edge">
<title>LoadingService&#45;&gt;AppModule</title>
<path fill="none" stroke="black" d="M270,-122.13C270,-142.57 270,-173 270,-173 270,-173 770.98,-173 770.98,-173"/>
<polygon fill="black" stroke="black" points="770.98,-176.5 780.98,-173 770.98,-169.5 770.98,-176.5"/>
</g>
<!-- MessagesService -->
<g id="node12" class="node">
<title>MessagesService</title>
<ellipse fill="#fdb462" stroke="black" cx="102" cy="-104" rx="77.56" ry="18"/>
<text text-anchor="middle" x="102" y="-99.8" font-family="Times,serif" font-size="14.00">MessagesService</text>
</g>
<!-- MessagesService&#45;&gt;AppModule -->
<g id="edge11" class="edge">
<title>MessagesService&#45;&gt;AppModule</title>
<path fill="none" stroke="black" d="M102,-122.01C102,-144.49 102,-180 102,-180 102,-180 771.12,-180 771.12,-180"/>
<polygon fill="black" stroke="black" points="771.12,-183.5 781.12,-180 771.12,-176.5 771.12,-183.5"/>
</g>
</g>
</svg>
